# xmcd
#
# Track frame offsets:
#	152
#	13587
#	31090
#	45683
#	60260
#	74044
#	94842
#	106898
#	124811
#	144691
#	160197
#	180066
#	193533
#
# Disc length: 3559 seconds
#
# Revision: 0
# Processed by: cddbd v1.5.2PL0 Copyright (c) Steve Scherf et al.
# Submitted via: EZCDAudioConverter 7.1.5.1
#
DISCID=a60de50d
DTITLE=Masa ja Iilimarot - T‰‰lt‰ Tullaan
DYEAR=1990
DGENRE=
TTITLE0=T‰‰lt‰ Tullaan
TTITLE1=Judopuku Kinnaa
TTITLE2=Oikiat Ja V‰‰r‰t
TTITLE3=Kuvissa Allakan
TTITLE4=Pian On
TTITLE5=Torstain S‰‰
TTITLE6=Hiilest‰ Timantiksi
TTITLE7=Sinist‰ Kultaa
TTITLE8=Kuumaa Laavaa
TTITLE9=Harmaa Ferkku
TTITLE10=Hyv‰‰ Yˆt‰ Kuu
TTITLE11=Pohjanmaan Kautta
TTITLE12=Tuuli Marraskuun
EXTD=
EXTT0=
EXTT1=
EXTT2=
EXTT3=
EXTT4=
EXTT5=
EXTT6=
EXTT7=
EXTT8=
EXTT9=
EXTT10=
EXTT11=
EXTT12=
PLAYORDER=
